<?xml version="1.0" encoding="UTF-8"?>
<svg width="24px" height="18px" viewBox="0 0 24 18" version="1.1" xmlns="http://www.w3.org/2000/svg" xmlns:xlink="http://www.w3.org/1999/xlink">
    <!-- Generator: Sketch 51.1 (57501) - http://www.bohemiancoding.com/sketch -->
    <title>Combined Shape Copy 2</title>
    <desc>Created with Sketch.</desc>
    <defs></defs>
    <g id="final-v2-rs" stroke="none" stroke-width="1" fill="none" fill-rule="evenodd" stroke-linecap="round" stroke-linejoin="round">
        <g id="mobile-00" transform="translate(-55.000000, -37.000000)" stroke="#000000" stroke-width="1.5">
            <path d="M77.9032854,48.2867897 C77.9032854,48.2867897 73.0452898,54 67.0140882,54 C60.9828866,54 56.124891,48.2867897 56.124891,48.2867897 L56.1109242,48.286589 C56.1109242,48.286589 60.9689199,42.5733787 67.0001214,42.5733787 C73.031323,42.5733787 77.9067265,48.286589 77.9067265,48.286589 L77.903083,48.286589 Z M56,42.2156506 L57.6573052,46.4232714 L56,42.2156506 Z M76.371195,46.4236729 L78,42.573459 L76.371195,46.4236729 Z M67.0159099,38 L67.0159099,42.5733787 L67.0159099,38 Z M61.2518981,39.145051 L61.9919733,43.4847622 L61.2518981,39.145051 Z M72.0398871,43.4843607 L72.7768045,39.1446495 L72.0398871,43.4843607 Z" id="Combined-Shape-Copy-2" transform="translate(67.000000, 46.000000) scale(1, -1) translate(-67.000000, -46.000000) "></path>
        </g>
    </g>
</svg>