<?xml version="1.0" encoding="UTF-8"?>
<svg width="29px" height="22px" viewBox="0 0 29 22" version="1.1" xmlns="http://www.w3.org/2000/svg" xmlns:xlink="http://www.w3.org/1999/xlink">
    <!-- Generator: Sketch 51.1 (57501) - http://www.bohemiancoding.com/sketch -->
    <title>Combined Shape</title>
    <desc>Created with Sketch.</desc>
    <defs></defs>
    <g id="final-v2-rs" stroke="none" stroke-width="1" fill="none" fill-rule="evenodd" stroke-linecap="round" stroke-linejoin="round">
        <path d="M27.8813048,13.8584871 C27.8813048,13.8584871 21.9192193,21 14.51729,21 C7.11536083,21 1.15327528,13.8584871 1.15327528,13.8584871 L1.13613429,13.8582362 C1.13613429,13.8582362 7.09821984,6.71672334 14.5001491,6.71672334 C21.9020783,6.71672334 27.885528,13.8582362 27.885528,13.8582362 L27.8810564,13.8582362 Z M19.0666097,13.8582362 C19.0666097,11.3215186 17.0307563,9.26503394 14.5193768,9.26503394 C12.0099847,9.26503394 9.97408149,11.3214685 9.97408149,13.8582362 C9.97408149,16.3929965 12.009935,18.4494812 14.5193768,18.4494812 C17.0307066,18.4494812 19.0666097,16.3930467 19.0666097,13.8582362 Z M1,6.26956325 L3.03396549,11.5290892 L1,6.26956325 Z M26.0010121,11.5295911 L28,6.71682371 L26.0010121,11.5295911 Z M14.5195258,1 L14.5195258,6.71672334 L14.5195258,1 Z M7.44551132,2.43131375 L8.35378537,7.85595272 L7.44551132,2.43131375 Z M20.685316,7.85545086 L21.5897147,2.43081189 L20.685316,7.85545086 Z" id="Combined-Shape" stroke="#000000" stroke-width="1.5" fill="#FFFFFF"></path>
    </g>
</svg>