<?xml version="1.0" encoding="UTF-8"?>
<svg width="31px" height="24px" viewBox="0 0 31 24" version="1.1" xmlns="http://www.w3.org/2000/svg" xmlns:xlink="http://www.w3.org/1999/xlink">
    <!-- Generator: Sketch 51.1 (57501) - http://www.bohemiancoding.com/sketch -->
    <title>Combined Shape Copy</title>
    <desc>Created with Sketch.</desc>
    <defs></defs>
    <g id="final-v2-rs" stroke="none" stroke-width="1" fill="none" fill-rule="evenodd" stroke-linecap="round" stroke-linejoin="round">
        <path d="M28.8813048,14.8584871 C28.8813048,14.8584871 22.9192193,22 15.51729,22 C8.11536083,22 2.15327528,14.8584871 2.15327528,14.8584871 L2.13613429,14.8582362 C2.13613429,14.8582362 8.09821984,7.71672334 15.5001491,7.71672334 C22.9020783,7.71672334 28.885528,14.8582362 28.885528,14.8582362 L28.8810564,14.8582362 Z M2,7.26956325 L4.03396549,12.5290892 L2,7.26956325 Z M27.0010121,12.5295911 L29,7.71682371 L27.0010121,12.5295911 Z M15.5195258,2 L15.5195258,7.71672334 L15.5195258,2 Z M8.44551132,3.43131375 L9.35378537,8.85595272 L8.44551132,3.43131375 Z M21.685316,8.85545086 L22.5897147,3.43081189 L21.685316,8.85545086 Z" id="Combined-Shape-Copy" stroke="#000000" stroke-width="2.5" transform="translate(15.500000, 12.000000) rotate(-180.000000) translate(-15.500000, -12.000000) "></path>
    </g>
</svg>