<?xml version="1.0" encoding="UTF-8"?>
<svg width="24px" height="18px" viewBox="0 0 24 18" version="1.1" xmlns="http://www.w3.org/2000/svg" xmlns:xlink="http://www.w3.org/1999/xlink">
    <!-- Generator: Sketch 51.1 (57501) - http://www.bohemiancoding.com/sketch -->
    <title>Combined Shape Copy</title>
    <desc>Created with Sketch.</desc>
    <defs></defs>
    <g id="final-v2-rs" stroke="none" stroke-width="1" fill="none" fill-rule="evenodd" stroke-linecap="round" stroke-linejoin="round">
        <g id="mobile-00" transform="translate(-25.000000, -32.000000)" stroke="#000000" stroke-width="1.5">
            <path d="M47.9032854,43.2867897 C47.9032854,43.2867897 43.0452898,49 37.0140882,49 C30.9828866,49 26.124891,43.2867897 26.124891,43.2867897 L26.1109242,43.286589 C26.1109242,43.286589 30.9689199,37.5733787 37.0001214,37.5733787 C43.031323,37.5733787 47.9067265,43.286589 47.9067265,43.286589 L47.903083,43.286589 Z M40.7209413,43.286589 C40.7209413,41.2572149 39.0620977,39.6120272 37.0157885,39.6120272 C34.9710986,39.6120272 33.3122145,41.2571748 33.3122145,43.286589 C33.3122145,45.3143972 34.9710581,46.959585 37.0157885,46.959585 C39.0620572,46.959585 40.7209413,45.3144373 40.7209413,43.286589 Z M26,37.2156506 L27.6573052,41.4232714 L26,37.2156506 Z M46.371195,41.4236729 L48,37.573459 L46.371195,41.4236729 Z M37.0159099,33 L37.0159099,37.5733787 L37.0159099,33 Z M31.2518981,34.145051 L31.9919733,38.4847622 L31.2518981,34.145051 Z M42.0398871,38.4843607 L42.7768045,34.1446495 L42.0398871,38.4843607 Z" id="Combined-Shape-Copy"></path>
        </g>
    </g>
</svg>